<?xml version="1.0" encoding="utf-8"?>
<!-- Generator: Adobe Illustrator 23.0.1, SVG Export Plug-In . SVG Version: 6.00 Build 0)  -->
<svg version="1.1" id="圖層_1" xmlns="http://www.w3.org/2000/svg" xmlns:xlink="http://www.w3.org/1999/xlink" x="0px" y="0px"
	 viewBox="0 0 30 30" style="enable-background:new 0 0 30 30;" xml:space="preserve">
<style type="text/css">
	.st0{display:none;}
	.st1{display:inline;}
	.st2{fill:#333333;}
	.st3{fill:#888988;}
	.st4{display:inline;fill:#888988;}
</style>
<g class="st0">
	<g class="st1">
		<path class="st2" d="M29.9,8.6c0-0.1,0-0.3-0.1-0.4c-0.3-0.3-0.9-0.4-2.2-0.5c0.7-0.4,1.5-1,1.5-1.6c0-0.3-0.1-0.5-0.3-0.7
			c-0.4-0.3-1.5-0.2-2.5,0.1c0.4-0.6,0.7-1.1,0.8-1.5c0.1-0.3,0-0.5-0.1-0.7C27,3.1,26.8,3,26.5,3c-0.4,0-0.9,0.3-1.7,0.7
			c0,0,0,0,0,0C24.9,3,24.9,2,24.5,1.6c-0.1-0.2-0.4-0.3-0.6-0.3c0,0-0.1,0-0.2,0c-0.4,0.1-0.9,0.5-1.3,1.1c-0.3-1.1-0.8-2-1.2-2.2
			c-0.1-0.1-0.2-0.1-0.4-0.1c-0.4,0-0.6,0.2-0.7,0.5c-0.3-0.4-0.8-0.6-1.3-0.3c-0.3,0.1-0.9,0.5-1.1,1.1c0,0,0,0,0,0.1
			C17.4,1,17,0.7,16.6,0.7c-0.1,0-0.2,0-0.2,0c-0.1,0-0.3,0.2-0.4,0.4c-0.2,0.4-0.1,1.1,0.1,1.9C16.1,3,16,3,16,2.9
			c-0.5-0.6-1.6-2.2-1.6-2.2c-0.1-0.1-0.3-0.2-0.5-0.2c-0.2,0-0.3,0.2-0.4,0.3c0,0-0.2,0.6-0.3,1.2c-0.3-0.9-0.6-1.6-0.6-1.6
			c-0.1-0.2-0.2-0.3-0.4-0.3c-0.2,0-0.3,0.1-0.4,0.2c0,0-0.4,0.6-0.6,1.4c-0.1-0.1-0.1-0.2-0.1-0.2c-0.1-0.1-0.2-0.2-0.3-0.2
			c0,0-0.1,0-0.2,0c-0.3,0-1.2,0.1-2,1.1C8.4,2.6,8.2,2.9,8,3.3C8,3,7.9,2.8,7.8,2.6C7.7,2.5,7.5,2.4,7.3,2.4l0,0
			c-0.2,0-0.5,0.1-0.7,0.4C6,3.4,5.3,4.8,5.3,6.1C5,5.8,4.7,5.4,4.4,5.2C3.8,4.4,3.4,4,2.9,4C2.8,4,2.6,4,2.5,4.1
			C2.3,4.3,2.2,4.6,2.2,4.9c0,0.7,0.3,1.9,1.1,2.7c-0.5-0.1-1-0.1-1.4-0.1c-0.4,0-1.6,0-1.8,0.8c0,0.1,0,0.4,0.2,0.6
			C0.6,9.4,1.7,9.8,2.9,10c-1,0.6-1.7,1.3-1.8,1.8c-0.1,0.3,0,0.5,0.1,0.6c0.1,0.2,0.3,0.3,0.8,0.3c0.6,0,1.6-0.4,2.3-0.8
			c-0.1,0.7,0,1.4,0.3,2c0.2,0.4,0.5,0.7,0.8,0.8c0,0,0.2,0,0.2,0c0.6,0,0.8-0.6,1-1.5c0.1-0.3,0.2-0.6,0.3-1
			c0.6,1.2,2.5,2.9,3.4,2.9c0,0,0.1,0,0.1,0c0,0,0,0,0.1,0c0.7,0,1.9-1.1,2.8-2.1c-0.1,1.4,0,2.8,0.7,3c0,0,0.1,0,0.1,0
			c0.6,0,1.1-0.9,1.5-1.9c0.1,0.1,0.1,0.2,0.2,0.2c0.1,0.1,0.2,0.1,0.4,0.1c0.3,0,0.5-0.1,0.7-0.4c0.6,0.8,1.3,1.6,1.8,1.6
			c0.1,0,0.2,0,0.3-0.1c0.2-0.1,0.3-0.3,0.4-0.5c0.1-0.3,0.1-0.6,0.1-1.1c0.5,0.9,1.1,1.6,1.7,1.6c0,0,0,0,0,0
			c0.2,0,0.4-0.1,0.5-0.2c0.3-0.4,0.3-1.2,0.2-2.7c0-0.4-0.1-0.9-0.1-1.3c0,0,0,0,0,0c0,0,0,0,0.1,0.1c1.2,1.2,3.8,2.5,4.8,2.5
			c0.2,0,0.4-0.1,0.5-0.2c0.1-0.1,0.2-0.3,0.2-0.5c0-0.4-0.3-0.7-1.1-1.4c0,0,0.1,0,0.1,0l0.1,0.1c0.6,0.3,1.1,0.5,1.5,0.5
			c0.5,0,0.8-0.2,1-0.6c0.2-0.5,0.2-1.3-1.5-2.2C28.7,9.5,29.8,9.1,29.9,8.6z M28,6.1C28,6.1,28,6.1,28,6.1c-0.2,0.3-0.7,0.6-1.3,1
			c-0.4,0.2-0.8,0.3-1.1,0.3c-0.2,0-0.5-0.1-0.7-0.2c0,0-0.1,0-0.1-0.1C24.9,7,25,6.9,25.4,6.7C26.2,6.4,27.3,6.1,28,6.1z M22.9,3.6
			c0.1-0.6,0.7-1.2,1-1.3c0.1,0.2,0.1,0.7,0,1.2c-0.1,0.6-0.6,1-1,1.2C22.9,4.5,22.8,4.1,22.9,3.6z M23.1,5.9
			C23.5,5.6,24,5.3,24.5,5c0.5-0.3,1.2-0.8,1.6-1c-0.3,0.7-1.3,1.9-2.4,2.6c-1.7,1-1.9,0.6-2,0.5c0,0,0-0.1,0-0.1
			C21.7,7,21.9,6.6,23.1,5.9z M18.6,1.7c0.1-0.3,0.5-0.5,0.6-0.5c0.1,0,0.1,0,0.1,0c0.1,0,0.2,0.2,0.3,0.8c0.2,0.9,0.1,2,0,2.4
			c-0.3-0.4-0.8-1.4-1-1.9C18.6,2,18.5,1.8,18.6,1.7z M14.3,2.1c0.3,0.5,0.7,1,1,1.4c0.3,0.4,0.7,0.9,0.9,1.3
			c-0.8-0.3-1.8-0.8-1.9-1C14.1,3.3,14.2,2.7,14.3,2.1z M16.5,6.2c1.3,0.6,1.5,0.9,1.5,1c0,0,0,0,0,0.1c0,0.1-0.1,0.5-2-0.4
			c-1.2-0.6-2.3-1.4-2.7-1.8C13.9,5.2,15.2,5.6,16.5,6.2z M12.2,1.7c0.2,0.6,0.5,1.4,0.4,1.9c-0.1,0.5-0.4,1-0.5,1.1
			c-0.2-0.4-0.4-0.9-0.3-1.5C11.9,2.7,12.1,2.2,12.2,1.7z M12.3,6.2c0.1,0,0.1,0,0.2,0c0.4,0,0.8,0.2,0.9,0.5
			c0.1,0.1,0.1,0.2,0.1,0.3c-0.3,0-0.7,0-1.1,0c-0.4,0-0.8,0-1.2,0c0-0.1-0.1-0.2-0.1-0.3C11.3,6.5,11.7,6.2,12.3,6.2z M14,8
			c-0.7,0.2-1.9,0.5-3.9,0.8C9.7,8.9,9.3,9,9.1,9C8.7,9,8.5,8.9,8.5,8.9c0,0,0-0.1,0-0.1c0.1-0.1,0.3-0.4,1.4-0.6
			C10.5,8,11.4,8,12.4,8C13.1,8,13.6,8,14,8z M9.3,3c0.4-0.5,0.9-0.7,1.2-0.7c0.1,0.3,0.2,0.7-0.1,1.2C10,4,9,4.6,8.3,4.9
			C8.5,4.4,8.8,3.5,9.3,3z M8.5,6.7c0.7-0.8,2-1.6,2.7-1.9c0,0,0,0,0,0c-0.3,0.6-0.9,1.5-1.6,2.2C9,7.4,8.2,7.6,7.8,7.7
			C7.8,7.6,8,7.3,8.5,6.7z M7.1,3.7C7,3.9,7,4.2,7,4.4C7,5,6.9,5.6,6.9,6.2c0,1-0.1,1.2-0.2,1.3c0,0,0,0-0.1,0h0
			C6.4,7.5,6.2,7,6.2,6.2C6.1,5.3,6.7,4.2,7.1,3.7z M3.1,5.1c0.2,0.2,0.4,0.4,0.6,0.7c0.3,0.3,0.6,0.7,1,1c0.8,0.8,0.8,1.1,0.8,1.1
			c0,0-0.1,0-0.1,0C5.2,8,4.9,7.9,4.1,7.1C3.4,6.5,3.2,5.6,3.1,5.1z M1.2,8.5c0.3-0.1,1.2-0.1,2.1,0.1C4.7,8.7,4.8,9,4.8,9
			c0,0.1-0.2,0.2-0.8,0.2h0c-0.2,0-0.5,0-0.8-0.1C2.2,9,1.5,8.7,1.2,8.5z M5.1,10.2c-0.1,0.1-0.2,0.2-0.3,0.3
			C4.7,10.6,4.4,10.8,4,11c-0.9,0.5-1.6,0.7-1.9,0.8c0.2-0.2,0.6-0.7,1.5-1.2c0.8-0.4,1.2-0.5,1.4-0.5C5.1,10.1,5.1,10.2,5.1,10.2
			C5.1,10.2,5.1,10.2,5.1,10.2z M6,11.8c-0.2,0.4-0.3,0.8-0.4,1.1c-0.1,0.2-0.1,0.5-0.2,0.7c-0.2-0.3-0.5-1.1-0.1-1.9
			c0-0.1,0.1-0.4,0.3-0.6C5.6,11,5.7,11,5.7,10.9c0,0,0.1-0.1,0.1-0.1c0.1,0,0.2,0,0.3,0.1c0,0,0.1,0,0.1,0C6.2,11,6.2,11.3,6,11.8z
			 M6.7,10L6.7,10C6.3,10,6,9.7,6,9.3C6,9.1,6,8.9,6.2,8.8c0.1-0.1,0.3-0.2,0.5-0.2c0.4,0,0.7,0.3,0.7,0.7C7.4,9.6,7.1,10,6.7,10z
			 M7.6,11.7c-0.2-0.5-0.3-0.7-0.3-0.9c0,0,0.1,0,0.1,0c0.1,0,0.2-0.1,0.3-0.1C7.8,11,8,11.1,8.2,11.3c0,0.1,0.1,0.2,0.1,0.3
			c0.2,0.5,0.5,1,0.8,1.5c0.1,0.2,0.3,0.5,0.4,0.8C8.9,13.4,8,12.5,7.6,11.7z M10.1,12.9L10.1,12.9c0-0.1-0.1-0.1-0.1-0.2
			c-0.1-0.2-0.2-0.4-0.4-0.6l0.8,0.1C10.3,12.4,10.2,12.6,10.1,12.9z M9.5,11c-0.3-0.1-1-0.6-1.1-0.9c0.4,0,1.1,0.3,1.8,0.5
			c0.6,0.2,1.3,0.3,1.9,0.3c0.1,0,0.3,0,0.4,0c-0.4,0.1-1,0.3-1.7,0.3C10.2,11.2,9.8,11.2,9.5,11z M10.7,14.1
			C10.7,14.1,10.7,14.1,10.7,14.1C10.7,14,10.7,14,10.7,14.1C10.7,14,10.7,14,10.7,14.1c0.1-0.5,0.4-1.2,0.7-1.9
			c0.6-0.1,1.2-0.2,1.7-0.5C12.4,12.7,11.3,13.7,10.7,14.1z M15.3,11.4l-0.1,0.6c-0.2,1.1-0.7,2.4-1.1,3c-0.1-0.6,0-1.9,0.2-3.2
			c0.1-0.9,0.5-0.9,0.7-0.9c0.1,0,0.3,0,0.4,0C15.3,10.9,15.3,11.1,15.3,11.4z M16,9.5c-0.9,0.2-2.3,0.3-3.4,0.3c-0.3,0-0.6,0-0.8,0
			c0.9-0.4,2.5-0.8,4-1.1c0.5-0.1,1-0.2,1.3-0.2c0.2,0,0.7,0,0.7,0.2c0,0,0,0.1,0,0.1C17.7,8.9,17.4,9.2,16,9.5z M18.4,14.6
			c-0.3-0.2-0.7-0.7-1.1-1.3c0,0,0,0,0,0c0.1-0.1,0.1-0.2,0.2-0.3c0.2-0.3,0.4-0.6,0.6-0.9C18.5,13.1,18.5,14.1,18.4,14.6z M17.9,11
			c-0.4,0.5-0.8,1-1.1,1.5c-0.2,0.3-0.5,0.7-0.6,0.9c-0.1-0.5,0-1.5,0.8-2.4c0.9-1,1.3-1.2,1.5-1.2c0.1,0,0.1,0,0.2,0
			c0,0,0.1,0,0.1,0C18.7,10,18.5,10.4,17.9,11z M17.8,5c-0.6-1.3-0.9-2.6-1-3.2c0.5,0.4,1.4,1.6,2,2.9c0.5,1.1,0.5,1.5,0.4,1.6
			c0,0,0,0.1-0.1,0.1c0,0-0.1,0-0.1,0C18.9,6.4,18.4,6.3,17.8,5z M19.1,8.7C19,8.5,19,8.3,19,8c0.1-0.4,0.5-0.7,0.9-0.7
			c0.1,0,0.2,0,0.3,0c0.2,0.1,0.4,0.2,0.5,0.5c0.1,0.2,0.1,0.5,0.1,0.7c-0.1,0.5-0.7,0.8-1.2,0.6C19.4,9.1,19.2,9,19.1,8.7z
			 M20.9,14.6c-0.5-0.4-1.2-1.8-1.3-3c-0.1-1,0.1-1.2,0.1-1.2c0,0,0.1-0.1,0.3-0.1l0.1,0c0.2,0,0.4,0,0.5,1.3c0,0.4,0.1,0.9,0.1,1.3
			C20.8,13.4,20.9,14.2,20.9,14.6z M20.6,6.4C20.6,6.4,20.6,6.3,20.6,6.4c-0.2,0-0.2-0.1-0.3-0.1c-0.1-0.1-0.2-0.5,0.2-1.6
			c0.3-0.7,0.3-1.6,0.3-2.4c0-0.3,0-0.8,0.1-1c0.4,0.6,1.1,2.4,0.7,3.7C21.3,5.8,21,6.4,20.6,6.4z M22.3,10.8
			c-0.6-0.5-0.9-0.9-1-1.1c0,0,0,0,0,0c0.1,0,0.1-0.1,0.2-0.1c0.2,0,0.7,0.1,1.6,1c0.4,0.4,1,0.9,1.5,1.3c0.3,0.3,0.7,0.6,1.1,0.9
			C24.7,12.5,23.2,11.6,22.3,10.8z M28.1,11.6c0,0.1-0.2,0.3-1.3-0.3l-0.1-0.1c-0.6-0.3-1.5-0.7-2-1.1c0.5,0,1.5,0.1,2.4,0.5
			C27.8,11,28.1,11.4,28.1,11.6z M24.6,9.2c-0.2,0-0.4,0-0.6,0c-1.4-0.2-1.8-0.4-1.8-0.5c0,0,0-0.1,0-0.1c0-0.2,0.4-0.3,1.1-0.3
			c0.3,0,0.6,0,0.9,0.1c0.6,0.1,1.3,0.1,2,0.2c0.7,0,1.6,0.1,2.2,0.2C27.4,8.9,25.9,9.2,24.6,9.2z"/>
	</g>
	<g class="st1">
		<path class="st2" d="M23.9,25.9H6.1c-0.3,0-0.5,0.1-0.7,0.4c-0.1,0.2-0.1,0.5,0,0.8L7,29.8c0.1,0.2,0.4,0.4,0.7,0.4h14.6
			c0.3,0,0.5-0.1,0.7-0.4l1.6-2.8c0.1-0.2,0.1-0.5,0-0.8C24.4,26,24.1,25.9,23.9,25.9z M22.5,27.4l-0.7,1.3H8.2l-0.7-1.3H22.5z"/>
		<path class="st2" d="M6.1,19h0.3l0.9,6.5h1.5L8,19h14.1l-0.9,6.5h1.5l0.9-6.5h0.3c0.4,0,0.7-0.3,0.8-0.7l0.4-4l-0.2-0.1
			c-0.3-0.1-0.6-0.3-0.9-0.4l-0.4-0.2l-0.4,3.9H6.8l-0.3-2.6l-0.4,0.3c-0.2,0.1-0.4,0.2-0.8,0.2H5.1l0.3,3C5.4,18.7,5.8,19,6.1,19z"
			/>
	</g>
</g>
<g>
	<path class="st3" d="M12.9,11c-0.8,0-1.4,0.6-1.4,1.4c0,0.8,0.6,1.4,1.4,1.4c0.8,0,1.4-0.6,1.4-1.4C14.3,11.7,13.7,11,12.9,11z"/>
	<path class="st3" d="M17.1,11c-0.8,0-1.4,0.6-1.4,1.4c0,0.8,0.6,1.4,1.4,1.4c0.8,0,1.4-0.6,1.4-1.4C18.4,11.7,17.8,11,17.1,11z"/>
	<path class="st3" d="M26.5,2c-1.2-1-2.8-1.4-4.3-1.1c-1.5,0.3-2.8,1.2-3.7,2.5c-0.9-0.4-2-0.5-3.4-0.5c-1.6,0-2.6,0.1-3.5,0.5
		c-1-1.4-2.3-2.3-3.8-2.6C6.1,0.6,4.4,1.2,3.1,2.4C0.7,4.7-0.9,9,0.6,12.6l0,0.1c0.6,1.5,1,2.4,1.9,2.6c0.7,0.1,1.3-0.3,1.8-0.8
		c1.7-1.6,1.9-3.5,2.1-5.1C6.6,8,6.7,6.8,7.7,5.9c0.1-0.1,0.2-0.2,0.3-0.2C8,5.8,8.3,6,8.7,6.7C7.2,9.5,5.3,16.3,5,19.3
		c0,0.4-0.1,0.9-0.1,1.3c0,5,2.1,7.9,5.5,7.9c0.6,0,1.1-0.1,1.7-0.3c0.6,0.6,1.6,1,2.9,1c1.3,0,2.4-0.4,2.9-1
		c0.5,0.2,1.1,0.3,1.7,0.3c3.4,0,5.5-3.1,5.5-8.2c0-0.3,0-0.6,0-1c-0.2-3-1.9-9.7-3.6-12.7c0.2-0.2,0.3-0.3,0.5-0.3
		c0.2,0,0.4,0,0.6,0.2c0.9,0.7,1,1.8,1.1,3.1c0.1,1.5,0.3,3.4,2.1,4.8c0.4,0.3,1.1,0.8,1.8,0.6c0.9-0.2,1.2-1.2,1.7-2.7l0.1-0.3
		C30.9,8.1,29.1,4.1,26.5,2z M15,27.6c-0.7,0-1.2-0.1-1.5-0.3c0.6-0.5,1.1-1.1,1.5-1.8c0.4,0.7,0.9,1.3,1.5,1.8
		C16.2,27.4,15.7,27.6,15,27.6z M15.7,20.8c-0.3,0.2-0.5,0.4-0.7,0.6c-0.2-0.2-0.4-0.4-0.7-0.6c-0.2-0.1-0.4-0.2-0.7-0.4
		c-0.9-0.5-2.5-1.4-2.5-2.2c0-0.6,0.1-1,0.4-1.3c0.5-0.5,1.6-0.8,3.4-0.8H15c1.7,0,2.8,0.3,3.4,0.8c0.3,0.3,0.4,0.8,0.4,1.3
		c0,0.7-1.6,1.7-2.5,2.2C16.1,20.6,15.9,20.7,15.7,20.8z M28.1,11.4l-0.1,0.3c-0.2,0.7-0.5,1.4-0.7,1.7c-0.1,0-0.2-0.1-0.4-0.2
		c-1.3-1-1.4-2.3-1.5-3.8c-0.1-1.4-0.3-3-1.7-4.1c-0.6-0.4-1.2-0.6-1.9-0.5c-0.7,0.1-1.4,0.6-1.8,1.4c-0.1,0.2-0.1,0.6,0,0.8
		c1.4,2.3,3.3,9.3,3.6,12.5c0,0.3,0,0.6,0,0.9c0,2-0.4,6.6-3.9,6.6c-0.6,0-1.1-0.2-1.6-0.5c0,0,0,0-0.1,0c-1-0.6-1.8-1.8-2-3.3
		c0.1-0.3,0.3-0.7,0.7-1c0.2-0.1,0.4-0.2,0.6-0.4c1.4-0.8,3.3-1.9,3.3-3.5c0-1-0.3-1.9-0.9-2.5c-1.1-1.1-3-1.3-4.5-1.3h-0.1
		c-1.5,0-3.4,0.2-4.5,1.3c-0.6,0.6-0.9,1.5-0.9,2.5c0,1.6,1.9,2.7,3.3,3.5c0.2,0.1,0.4,0.2,0.6,0.4c0.4,0.3,0.6,0.6,0.7,1
		c-0.4,2.2-2,3.8-3.8,3.8c-3.5,0-3.9-4.4-3.9-6.4c0-0.3,0-0.7,0.1-1.1c0.3-2.9,2.3-10,3.7-12.3c0.1-0.2,0.1-0.5,0-0.8
		c-0.5-1.3-1.2-2-2-2.2c-0.4-0.1-1,0-1.7,0.6C5.2,6.1,5.1,7.6,4.9,9.2c-0.2,1.5-0.3,3-1.6,4.2c-0.2,0.2-0.3,0.3-0.4,0.3
		c-0.2-0.3-0.5-1-0.8-1.6l0-0.1C0.8,9,2.2,5.5,4.2,3.6c0.9-0.9,2.1-1.3,3.3-1.1C8.7,2.7,9.9,3.6,10.6,5c0.1,0.2,0.3,0.4,0.5,0.4
		c0.2,0,0.5,0,0.7-0.2l0.1-0.1c0.6-0.5,1.4-0.6,3.2-0.6c1.7,0,2.6,0.2,3.2,0.6c0.2,0.1,0.4,0.2,0.6,0.1c0.2,0,0.4-0.2,0.5-0.4
		c0.7-1.3,1.8-2.2,3-2.4c1.1-0.2,2.1,0.1,3,0.8C27.6,5,29.2,8.3,28.1,11.4z"/>
</g>
<g class="st0">
	<path class="st4" d="M26.2,5c0.3-0.3,0.4-0.6,0.4-1c0-3-10.4-3.1-11.6-3.1S3.4,1,3.4,4c0,0.4,0.2,0.7,0.4,1C1.4,7.7,0,11.1,0,14.6
		c0,3.9,1.6,7.5,4.4,10.2c2.8,2.7,6.6,4.2,10.6,4.2c8.3,0,15-6.5,15-14.4C30,11.1,28.6,7.7,26.2,5z M15,7.2c0.9,0,6.7,0,9.8-1.3
		c0.8,0.8,1.4,1.6,1.9,2.5c-0.3,0.1-0.6,0.3-0.8,0.5c-0.4,0.3-0.9,0.5-1.2,0.5c-0.3,0-0.8-0.3-1.3-0.5c-0.6-0.3-1.3-0.7-2.1-0.7
		c-0.8,0-1.4,0.4-2,0.7c-0.4,0.3-0.9,0.5-1.2,0.5c-0.3,0-0.8-0.3-1.3-0.5c-0.6-0.3-1.3-0.7-2.1-0.7c-0.8,0-1.4,0.4-2,0.7
		c-0.4,0.3-0.9,0.5-1.2,0.5c-0.3,0-0.8-0.3-1.3-0.5C9.7,8.5,9,8.1,8.3,8.1c-0.8,0-1.4,0.4-2,0.7C5.8,9.1,5.4,9.4,5.1,9.4
		c-0.3,0-0.8-0.3-1.3-0.5C3.6,8.7,3.4,8.6,3.2,8.5c0.5-1,1.2-1.8,2-2.7C8.3,7.1,14.1,7.2,15,7.2z M15,2.5c5.9,0,9.2,0.9,9.9,1.5
		c-0.7,0.6-4.1,1.5-9.9,1.5S5.8,4.6,5.1,4C5.8,3.5,9.1,2.5,15,2.5z M15,27.5c-3.6,0-7-1.3-9.5-3.8c-2.5-2.4-3.9-5.6-3.9-9.1
		c0-1.6,0.3-3.2,0.9-4.6c0.2,0.1,0.3,0.2,0.5,0.3C3.6,10.6,4.3,11,5.1,11c0.8,0,1.4-0.4,2-0.7C7.5,10,7.9,9.7,8.3,9.7
		c0.3,0,0.8,0.3,1.3,0.5c0.6,0.3,1.3,0.7,2.1,0.7c0.8,0,1.4-0.4,2-0.7c0.4-0.3,0.9-0.5,1.2-0.5c0.3,0,0.8,0.3,1.3,0.5
		c0.6,0.3,1.3,0.7,2.1,0.7c0.8,0,1.4-0.4,2-0.7c0.4-0.3,0.9-0.5,1.2-0.5c0.3,0,0.8,0.3,1.3,0.5c0.6,0.3,1.3,0.7,2.1,0.7
		c0.8,0,1.4-0.4,2-0.7c0.3-0.2,0.5-0.3,0.7-0.4c0.6,1.5,1,3.1,1,4.8C28.4,21.7,22.4,27.5,15,27.5z"/>
	<path class="st4" d="M23.4,19c-0.3-0.3-0.8-0.4-1.1-0.1l-1.7,1.4c-1.1-1.2-2.6-1.8-4.1-1.8c-1.8,0-3.6,0.9-4.7,2.5
		c-0.2,0.3-0.2,0.6,0,0.9c1.1,1.6,2.8,2.5,4.7,2.5c1.6,0,3-0.7,4.1-1.8l1.6,1.4c0.2,0.1,0.3,0.2,0.5,0.2c0.2,0,0.5-0.1,0.6-0.3
		c0.3-0.3,0.2-0.8-0.1-1.1l-1.5-1.3l1.5-1.3C23.6,19.8,23.7,19.3,23.4,19z M14.5,20.5c0.4,0.6,0.4,1.1,0,1.6
		c-0.4-0.2-0.8-0.5-1.1-0.8C13.8,21,14.1,20.8,14.5,20.5z M16.5,22.7c-0.1,0-0.3,0-0.4,0c0.4-0.9,0.4-1.7,0-2.6c0.1,0,0.3,0,0.4,0
		c1.1,0,2.2,0.5,3,1.4C18.7,22.2,17.6,22.7,16.5,22.7z"/>
	<path class="st4" d="M15.7,15.7c0.2-0.3,0.2-0.6,0-0.9c-1.1-1.6-2.8-2.5-4.7-2.5c-1.6,0-3,0.7-4.1,1.8l-1.7-1.4
		c-0.3-0.3-0.8-0.2-1.1,0.1c-0.3,0.3-0.2,0.8,0.1,1.1l1.5,1.3l-1.5,1.3c-0.3,0.3-0.4,0.8-0.1,1.1c0.2,0.2,0.4,0.3,0.6,0.3
		c0.2,0,0.4-0.1,0.5-0.2l1.6-1.4c1.1,1.2,2.6,1.8,4.1,1.8C12.8,18.2,14.6,17.3,15.7,15.7z M8,15.2c0.8-0.9,1.9-1.4,3-1.4
		c0.1,0,0.3,0,0.4,0c-0.4,0.9-0.5,1.8,0,2.6c-0.1,0-0.2,0-0.4,0C9.8,16.6,8.8,16.1,8,15.2z M12.9,16.1c-0.4-0.5-0.4-1.1,0-1.6
		c0.4,0.2,0.7,0.5,1,0.8C13.7,15.6,13.3,15.9,12.9,16.1z"/>
</g>
<g class="st0">
	<path class="st4" d="M29.1,26.5H27v-10c0-0.5-0.4-0.9-0.9-0.9c-0.5,0-0.9,0.4-0.9,0.9v10H11.7v-10c0-0.5-0.4-0.9-0.9-0.9
		c-0.5,0-0.9,0.4-0.9,0.9v10H4.7v-10c0-0.5-0.4-0.9-0.9-0.9S3,16,3,16.4v10H0.9c-0.5,0-0.9,0.4-0.9,0.9c0,0.5,0.4,0.9,0.9,0.9h28.2
		c0.5,0,0.9-0.4,0.9-0.9C30,26.8,29.6,26.5,29.1,26.5z"/>
	<path class="st4" d="M4,14.6c1,0,2-0.4,2.7-1.1c0.7,0.7,1.7,1.1,2.7,1.1c1,0,2-0.4,2.7-1.1c0.7,0.7,1.7,1.1,2.7,1.1
		c1,0,2-0.4,2.7-1.1c0.7,0.7,1.7,1.1,2.7,1.1c1,0,2-0.4,2.7-1.1c0.7,0.7,1.7,1.1,2.7,1.1c2.2,0,4-1.8,4-4c0-0.2,0-0.5-0.1-0.7
		c0-0.1,0-0.1-0.1-0.2l-3.2-7.4c-0.1-0.3-0.4-0.5-0.8-0.5H4.1C3.7,1.8,3.4,2,3.3,2.3L0.1,9.7c0,0.1,0,0.1-0.1,0.2
		C0,10.1,0,10.3,0,10.6C0,12.8,1.8,14.6,4,14.6z M9.5,12.9c-0.8,0-1.5-0.4-1.9-1.1l1.3-8.3h2.9l-0.4,8.3c0,0,0,0.1,0,0.1
		C10.9,12.5,10.2,12.9,9.5,12.9z M15,12.9c-0.8,0-1.5-0.4-2-1.1l0.4-8.2h2.9l0.4,8.4c0,0,0,0,0,0C16.4,12.5,15.7,12.9,15,12.9z
		 M20.5,12.9c-0.8,0-1.6-0.4-2-1.2l-0.4-8.2h2.9l1.3,8.4C21.9,12.5,21.2,12.9,20.5,12.9z M28.3,10.3c0,0.1,0,0.2,0,0.3
		c0,1.3-1,2.3-2.3,2.3c-0.8,0-1.6-0.5-2-1.2c0,0,0,0,0,0l-1.3-8.1h2.7L28.3,10.3z M1.7,10.3l2.9-6.7h2.5l-1.3,8.2c0,0.1,0,0.1,0,0.1
		c-0.4,0.6-1.1,1-1.9,1c-1.3,0-2.3-1-2.3-2.3C1.7,10.5,1.7,10.4,1.7,10.3z"/>
	<path class="st4" d="M7.6,20V22c0,0.5,0.4,0.9,0.9,0.9c0.5,0,0.9-0.4,0.9-0.9V20c0-0.5-0.4-0.9-0.9-0.9C8,19.1,7.6,19.5,7.6,20z"/>
	<path class="st4" d="M23.5,16.4c-0.3-0.3-0.9-0.3-1.2,0l-6.4,6.4c-0.3,0.3-0.3,0.9,0,1.2c0.2,0.2,0.4,0.2,0.6,0.2
		c0.2,0,0.4-0.1,0.6-0.3l6.4-6.4C23.9,17.3,23.9,16.8,23.5,16.4z"/>
	<path class="st4" d="M18.8,26.1c0.2,0,0.4-0.1,0.6-0.3l4.3-4.4c0.3-0.3,0.3-0.9,0-1.2c-0.3-0.3-0.9-0.3-1.2,0l-4.3,4.4
		c-0.3,0.3-0.3,0.9,0,1.2C18.4,26,18.6,26.1,18.8,26.1z"/>
</g>
</svg>
